<svg xmlns="http://www.w3.org/2000/svg" viewBox="0 0 324.71 401.81"><defs><style>.cls-1{fill:#fff;}</style></defs><g id="Calque_2" data-name="Calque 2"><g id="Calque_1-2" data-name="Calque 1"><g id="Calque_2-2" data-name="Calque 2"><g id="Calque_1-2-2" data-name="Calque 1-2"><path class="cls-1" d="M321.15,116.41c-18-83.5-91.8-119.3-154.7-116.1-4.8-.2-9.6-.3-14.3-.1a136.61,136.61,0,0,0-49.9,6.4c-56.8,18.6-98.6,75.2-102,131.9-1.3,21.7,2.4,44.8,12.8,68.5,41.3,93.4,217.4,194.8,217.4,194.8s1-2.2,2.8-6.4c-38.8-23.6-171.7-108.9-206.8-188.4-10.4-23.6-14.2-46.8-12.9-68.4,3.6-57.7,46.6-113.8,102.1-132a130.61,130.61,0,0,1,36.4-6.4c2.6.1,5.2.3,7.8.5a138.49,138.49,0,0,0-28.5,5.8C64.25,28.41.85,113.51,42.15,207c32,72.5,145.2,149.8,194.4,180.8,4,2.5,7.6,4.8,10.7,6.6,7.8,4.8,12.4,7.4,12.4,7.4S342.65,216.31,321.15,116.41Zm-210,52.1a69.14,69.14,0,0,1,44.4-87.1c2.3-.7,4.5-1.3,6.8-1.8a69.23,69.23,0,0,1,6.8,133.5c-2.3.7-4.5,1.3-6.8,1.8A69.53,69.53,0,0,1,111.15,168.51Zm87.1,44.5a69.84,69.84,0,0,1-29.2,3,65.48,65.48,0,0,0,13.5-3,69.23,69.23,0,0,0-13.5-134.6A69.22,69.22,0,0,1,198.25,213Z"/></g></g></g></g></svg>